<svg width="108" height="97" viewBox="0 0 108 97" fill="none" xmlns="http://www.w3.org/2000/svg">
<path d="M40.7896 48.0924C33.8968 51.3065 30.9281 59.463 34.1423 66.3557C37.3564 73.2485 45.5129 76.2172 52.4056 73.0031C59.2984 69.7889 62.2671 61.6325 59.053 54.7397C55.8388 47.8469 47.6824 44.8782 40.7896 48.0924ZM51.2779 70.5846C45.7153 73.1784 39.1546 70.7906 36.5608 65.228C33.9669 59.6654 36.3548 53.1048 41.9174 50.5109C47.4799 47.917 54.0406 50.3049 56.6344 55.8675C59.2283 61.4301 56.8405 67.9907 51.2779 70.5846Z" fill="#FFAE16"/>
<path d="M85.7451 15.0571L60.1088 27.0115C59.6251 27.2371 59.3751 27.6481 59.3024 28.1236L58.9784 33.4274L51.8438 36.7543L47.5726 33.5933C47.1616 33.3433 46.686 33.2706 46.2023 33.4962L36.1655 38.1764C25.645 43.0823 20.2571 54.5751 22.406 65.4979C21.745 65.6589 21.2049 65.7635 20.6003 66.0455C17.5772 67.4552 16.2219 71.1788 17.6316 74.2019C19.0413 77.2251 22.7649 78.5803 25.7881 77.1706C26.3927 76.8887 26.9409 76.4858 27.3682 76.1393C34.3542 84.8065 46.6215 88.0666 57.1421 83.1608C69.4765 77.4092 74.8331 62.6921 69.0814 50.3577C68.7995 49.753 68.4612 49.0275 68.0583 48.4793L89.3432 31.929C89.7705 31.5826 89.8996 31.2279 89.7949 30.6878L87.631 15.9443C87.4136 15.1624 86.5915 14.6624 85.7451 15.0571ZM25.7004 73.8254C25.394 74.1155 24.9667 74.462 24.483 74.6876C22.79 75.477 20.6622 74.7026 19.8728 73.0096C19.0834 71.3166 19.8578 69.1889 21.5508 68.3994C22.0345 68.1739 22.4536 68.1256 22.9937 68.021C23.3239 69.0448 23.6541 70.0686 24.1052 71.036C24.6772 71.947 25.1283 72.9144 25.7004 73.8254ZM87.0061 30.0744L65.4149 46.9147C64.8666 47.3176 64.7858 48.0914 65.0677 48.696C65.5834 49.4861 66.1554 50.3971 66.5501 51.2436C71.6815 62.2478 66.9058 75.3691 55.9015 80.5005C44.8973 85.6318 31.776 80.8561 26.6446 69.8518C21.5133 58.8476 26.289 45.7263 37.2933 40.595L46.6046 36.253L50.8757 39.4141C51.2868 39.6641 51.7623 39.7367 52.246 39.5112L60.8317 35.5076C61.3154 35.282 61.5655 34.871 61.6381 34.3955L61.9621 29.0917L85.3008 18.2087L87.0061 30.0744Z" fill="#FFAE16"/>
<path d="M50.2273 23.8166C50.9528 23.4783 51.211 22.769 50.8727 22.0435L48.2788 16.4809C47.9405 15.7553 47.2312 15.4972 46.5056 15.8355C45.7801 16.1739 45.5219 16.8831 45.8603 17.6087L48.4541 23.1713C48.7925 23.8968 49.6227 24.0986 50.2273 23.8166Z" fill="#FFAE16"/>
<path d="M43.8661 29.433C44.5753 29.6911 45.3009 29.3528 45.559 28.6435C45.8172 27.9343 45.4788 27.2087 44.7696 26.9506L39.0955 24.8854C38.3863 24.6272 37.6607 24.9656 37.4025 25.6748C37.1444 26.3841 37.4827 27.1096 38.192 27.3678L43.8661 29.433Z" fill="#FFAE16"/>
<path d="M58.6672 22.9729L60.7324 17.2988C60.9905 16.5895 60.6522 15.864 59.9429 15.6058C59.2337 15.3477 58.5081 15.686 58.25 16.3953L56.1848 22.0693C55.9266 22.7786 56.265 23.5042 56.9742 23.7623C57.6835 24.0205 58.409 23.6821 58.6672 22.9729Z" fill="#FFAE16"/>
</svg>
