<svg width="80" height="85" viewBox="0 0 80 85" fill="none" xmlns="http://www.w3.org/2000/svg">
<path d="M8.99687 39.8036L19.2437 37.058L31.599 83.1686C31.8516 84.1113 32.8217 84.6714 33.7644 84.4188L78.1672 72.5211C79.1099 72.2685 79.67 71.2984 79.4174 70.3557L67.0621 24.245L77.3089 21.4994C78.1799 21.266 78.7338 20.4166 78.5992 19.5246L76.1885 3.69681C76.0627 2.87206 75.3793 2.24796 74.5478 2.19805L46.6427 0.523105C45.9266 0.480684 45.2527 0.875436 44.9415 1.52441C41.9587 8.15353 32.9389 10.5667 27.042 6.32056C26.4485 5.91582 25.6687 5.90878 25.0681 6.30401L1.7391 21.7071C1.04219 22.1665 0.762846 23.0504 1.06581 23.8259L6.89205 38.7385C7.2214 39.5783 8.12589 40.037 8.99687 39.8036ZM26.0654 9.88249C33.2716 14.261 43.5146 11.5146 47.5666 4.12126L72.9082 5.64291L74.8652 18.4934L64.4391 21.287C63.4964 21.5396 62.9363 22.5097 63.1889 23.4525L75.5442 69.5631L34.557 80.5456L22.2017 34.4349C21.9491 33.4922 20.979 32.9321 20.0363 33.1847L9.61014 35.9784L4.8797 23.8711L26.0654 9.88249Z" fill="#FFAE16"/>
</svg>
