<svg width="81" height="84" viewBox="0 0 81 84" fill="none" xmlns="http://www.w3.org/2000/svg">
<path d="M78.5218 64.21L75.7167 64.9616L64.8034 24.2324C64.2954 22.3366 62.3398 21.2077 60.4442 21.7156L54.1744 23.3956C52.2786 23.9035 51.1496 25.8592 51.6576 27.7548L62.5709 68.484L55.4483 70.3925L49.4796 48.1168C48.9716 46.221 47.0161 45.092 45.1204 45.6L38.8506 47.28C36.9548 47.7879 35.8258 49.7436 36.3338 51.6392L42.3025 73.9149L35.1799 75.8234L32.0887 64.287C31.5808 62.3912 29.6251 61.2622 27.7295 61.7702L21.4596 63.4502C19.5638 63.9581 18.4349 65.9138 18.9428 67.8094L22.034 79.3458L19.0776 80.138C18.3712 80.3272 17.9521 81.0532 18.1414 81.7596C18.3306 82.4659 19.0566 82.8851 19.763 82.6958L79.2072 66.7678C79.9135 66.5785 80.3327 65.8525 80.1434 65.1462C79.9542 64.4398 79.2282 64.0207 78.5218 64.21ZM32.6218 76.5088L24.5917 78.6605L21.5005 67.1241C21.3705 66.6387 21.6595 66.1381 22.1448 66.0081L28.4146 64.3281C28.9 64.198 29.4006 64.487 29.5306 64.9724L32.6218 76.5088ZM52.8903 71.0779L44.8602 73.2295L38.8915 50.9539C38.7614 50.4685 39.0504 49.9679 39.5358 49.8379L45.8056 48.1579C46.2908 48.0279 46.7915 48.3168 46.9216 48.8022L52.8903 71.0779ZM73.1589 65.6469L65.1288 67.7986L54.2154 27.0694C54.0854 26.5841 54.3744 26.0835 54.8597 25.9534L61.1295 24.2734C61.6149 24.1434 62.1155 24.4324 62.2455 24.9178L73.1589 65.6469Z" fill="#FFAE16"/>
<path d="M59.2137 3.38416C59.1381 3.03035 58.9202 2.70834 58.5823 2.51323C58.2443 2.31812 57.8565 2.29031 57.5123 2.40186C57.4915 2.40648 57.4706 2.40976 57.4496 2.41538L49.7121 4.48863C49.0058 4.6779 48.5866 5.4039 48.7759 6.11025C48.9651 6.8166 49.6911 7.23575 50.3975 7.04649L55.1752 5.76631L45.9198 21.7972L39.8745 18.3069C39.5704 18.1314 39.2089 18.0838 38.8697 18.1746C38.5306 18.2655 38.2413 18.4875 38.0658 18.7915L21.2352 47.9432C20.8696 48.5765 21.0866 49.3863 21.7198 49.752C22.0365 49.9346 22.3972 49.9717 22.7245 49.8841C23.0517 49.7964 23.3457 49.5838 23.5284 49.2671L39.697 21.2621L45.7424 24.7524C46.3756 25.118 47.1855 24.901 47.5512 24.2677L57.4686 7.09043L58.6272 11.4145C58.8165 12.1208 59.5425 12.54 60.2488 12.3507C60.9552 12.1615 61.3744 11.4355 61.1851 10.7291L59.2334 3.44524C59.2278 3.42439 59.2202 3.40464 59.2137 3.38416Z" fill="#FFAE16"/>
<path d="M19.6093 55.5015C20.3157 55.3123 20.7348 54.5863 20.5456 53.8799C20.3563 53.1736 19.6303 52.7544 18.9239 52.9437C18.2176 53.133 17.7984 53.859 17.9877 54.5653C18.177 55.2716 18.903 55.6908 19.6093 55.5015Z" fill="#FFAE16"/>
</svg>
