<svg width="244" height="103" viewBox="0 0 244 103" fill="none" xmlns="http://www.w3.org/2000/svg">
<path d="M118.836 74.2418C139.354 74.2418 155.986 57.6222 155.986 37.1209C155.986 16.6196 139.354 0 118.836 0C98.3184 0 81.6855 16.6196 81.6855 37.1209C81.6855 57.6222 98.3184 74.2418 118.836 74.2418Z" fill="#058FDB"/>
<path fill-rule="evenodd" clip-rule="evenodd" d="M149.633 74.2367L138.183 62.7957C137.229 61.8432 137.229 60.2962 138.183 59.3411L138.346 59.1776L134.362 55.1961C130.224 58.5079 124.953 60.4623 119.226 60.3949C106.181 60.2365 95.7593 49.6884 95.7593 36.6538C95.7593 23.6607 106.202 13.1074 119.158 12.9153C132.333 12.718 143.219 23.3752 143.282 36.5422C143.31 42.3613 141.24 47.7002 137.785 51.8427L141.736 55.793C142.69 54.8379 144.238 54.8379 145.194 55.793L156.696 67.2833L149.63 74.2367H149.633Z" fill="white"/>
<path fill-rule="evenodd" clip-rule="evenodd" d="M119.524 18.3579C116.815 18.3579 114.241 18.9471 111.926 20.0009C114.771 21.6075 116.688 24.6598 116.688 28.1585C116.688 33.3314 112.493 37.5231 107.316 37.5231C105.006 37.5231 102.892 36.69 101.261 35.3091C101.227 35.753 101.211 36.202 101.211 36.6536C101.211 46.7579 109.409 54.9493 119.522 54.9493C129.634 54.9493 137.832 46.7579 137.832 36.6536C137.832 26.5493 129.634 18.3579 119.522 18.3579" fill="#0D0F28"/>
<mask id="mask0_55_316" style="mask-type:luminance" maskUnits="userSpaceOnUse" x="101" y="18" width="37" height="37">
<path d="M119.524 18.3579C116.815 18.3579 114.241 18.9471 111.926 20.0009C114.771 21.6075 116.688 24.6598 116.688 28.1585C116.688 33.3314 112.493 37.5231 107.316 37.5231C105.006 37.5231 102.892 36.69 101.261 35.3091C101.227 35.753 101.211 36.202 101.211 36.6536C101.211 46.7579 109.409 54.9493 119.522 54.9493C129.634 54.9493 137.832 46.7579 137.832 36.6536C137.832 26.5493 129.634 18.3579 119.522 18.3579" fill="white"/>
</mask>
<g mask="url(#mask0_55_316)">
<path d="M113.888 44.9799V50.2799L113.654 50.7082L112.391 53.0208H113.888V55.6993C112.384 55.3386 110.947 54.8869 109.602 54.168V44.9799C109.602 43.7289 110.563 42.7114 111.745 42.7114C112.337 42.7114 112.872 42.9658 113.259 43.3759C113.646 43.786 113.888 44.3544 113.888 44.9799Z" fill="#FFDFA2"/>
<path d="M120 45.7197L118.737 48.0323H120.233V56.068C119.53 56.1536 118.815 56.1951 118.091 56.1951C117.366 56.1951 116.651 56.151 115.948 56.068V53.0208H117.444L116.181 50.7082L115.948 50.28V39.3166C115.948 38.0655 116.909 37.0481 118.091 37.0481C118.683 37.0481 119.218 37.3025 119.605 37.7125C119.992 38.1226 120.233 38.691 120.233 39.3166V45.2914L120 45.7197Z" fill="#FFCE73"/>
<path d="M126.345 39.2802L125.083 41.5928H126.579V54.0694C125.234 54.7858 123.797 55.3386 122.293 55.6994V48.0349H123.789L122.527 45.7223L122.293 45.294V35.4103C122.293 34.1593 123.254 33.1418 124.436 33.1418C125.028 33.1418 125.564 33.3962 125.951 33.8063C126.338 34.2164 126.579 34.7848 126.579 35.4103V38.8545L126.345 39.2828V39.2802Z" fill="#FFBE45"/>
<path d="M132.925 31.0343V50.1554C131.709 51.7724 130.263 51.6401 128.639 52.795V41.5929H130.135L128.873 39.2803L128.639 38.852V31.0343C128.639 29.7833 129.6 28.7659 130.782 28.7659C131.374 28.7659 131.909 29.0202 132.297 29.4303C132.684 29.8404 132.925 30.4088 132.925 31.0343Z" fill="#FFAE16"/>
</g>
<path d="M66.2822 54.1631H90.8318C89.2473 58.9752 84.7535 62.2247 79.683 62.2247H63.7625C59.7311 62.2247 56.5023 61.0386 54.019 58.6248C51.5955 56.2239 50.398 53.4831 50.398 50.3451V46.6283H50.3928V44.9205V40.6094H50.4006V40.0435C50.4006 34.5722 52.819 26.5236 64.8769 26.5236H71.4383V26.5677C71.6617 26.5495 71.8591 26.5132 72.1059 26.5132H93.5229C91.8916 31.2681 87.4186 34.4606 82.3897 34.4632L66.4146 34.471C60.3727 34.5333 60.2844 40.0773 60.2844 40.0773V43.7084L60.2792 45.4759V48.8189C60.2792 50.4282 60.8558 51.7233 61.9624 52.694C63.1131 53.6492 64.5392 54.1397 66.2822 54.1657V54.1631ZM241.73 26.5132H206.325C201.925 26.5132 198.353 30.0664 198.332 34.4632H214.398L214.393 62.2273H224.243L224.248 34.4632H233.737C238.137 34.4632 241.709 30.91 241.73 26.5132ZM183.565 26.5158V48.8968C183.56 50.4801 182.988 51.7545 181.874 52.6888C180.76 53.6803 179.331 54.1605 177.562 54.1605H165.681C163.966 54.1605 162.538 53.6803 161.369 52.6888C160.257 51.7545 159.686 50.4827 159.686 48.8968L159.691 26.5158H149.778L149.773 50.3399C149.773 53.4805 150.971 56.2239 153.397 58.63C155.883 61.036 159.109 62.2221 163.138 62.2221H180.045C184.131 62.2221 187.357 61.0334 189.786 58.63C192.215 56.2239 193.415 53.4805 193.415 50.3399L193.42 26.5158H183.568H183.565ZM34.5321 41.0324L12.2579 41.0246C10.637 40.926 9.37982 39.6464 9.37982 37.8166C9.37982 35.5871 11.2605 34.6812 12.3385 34.6812H30.6072C35.8179 34.6812 40.4675 31.4161 42.2339 26.521H10.3643C5.04967 26.5184 0 31.4472 0 37.5129C0 46.1534 7.51736 48.8345 10.5539 48.8345H32.6229C34.9841 48.8345 35.5789 50.8253 35.5789 51.5987C35.5789 53.2936 34.3269 54.5005 32.8852 54.5005H3.15085L0.436392 62.2221H34.2256C41.9429 62.2221 44.608 55.3025 44.608 52.1386C44.608 46.0573 40.3454 41.035 34.5321 41.035V41.0324Z" fill="#0D0F28"/>
<path d="M43.5844 86.1681C42.7662 85.296 41.8285 84.6679 40.7375 84.2448C41.0258 83.8762 41.2518 83.6453 41.4492 83.5622C43.3428 81.6934 44.2832 79.4587 44.2832 76.8269C44.2832 74.234 43.3428 71.9992 41.4206 70.1305C39.5114 68.2357 37.0593 67.3091 34.028 67.3091H0.454394C0.446601 71.6904 3.99748 75.2488 8.38477 75.2488H30.4225C33.3188 75.2488 34.0254 77.2915 34.0254 78.218C34.0254 79.1446 33.6903 79.9778 32.9941 80.6864C32.2824 81.382 31.4148 81.3872 30.355 81.3872H16.1437H0.441406V83.2715H0.462187L0.446601 102.992H35.9294C39.0802 102.966 41.6103 101.995 43.5818 100.046C45.5664 98.0425 46.5353 95.7221 46.5379 93.0384C46.5379 90.3806 45.569 88.0888 43.5844 86.1655V86.1681ZM35.4333 94.279C34.7371 94.9616 33.828 95.3017 32.7214 95.3302H10.2654V88.3483H32.7941C33.8539 88.3483 34.7345 88.6883 35.4307 89.358C36.1424 90.0406 36.4775 90.8582 36.4775 91.8003C36.4775 92.7555 36.1424 93.5731 35.4307 94.2816L35.4333 94.279ZM244 79.0979V91.206C243.997 94.2868 242.8 97.0277 240.389 99.4C237.966 101.814 234.708 103 230.633 103H196.059L196.069 90.0536V81.369L205.922 81.3664L205.914 89.3138V90.0536L205.909 94.9409H228.121C229.924 94.9149 231.347 94.4218 232.438 93.4692C233.573 92.5011 234.15 91.206 234.15 89.5967V80.541C234.152 78.8773 233.576 77.5692 232.472 76.6426C231.425 75.716 230.066 75.3137 228.446 75.2592C228.339 75.2462 228.217 75.2462 228.113 75.2462L208.621 75.254V75.2488H204.021C199.628 75.2488 196.069 71.693 196.067 67.304H230.641C234.776 67.304 238.033 68.4901 240.397 70.8364C241.745 72.1446 242.714 73.5773 243.306 75.158C243.774 76.3856 244.002 77.6938 244.002 79.0979H244ZM126.995 76.5803L119.875 88.6234H128.746C128.753 93.0046 125.203 96.5631 120.815 96.5631H115.181L111.381 102.995H100.126L121.688 67.304H132.595L154.145 102.997H142.754L127 76.5803H126.995ZM50.3952 79.1836C50.3952 75.9574 51.5953 73.1854 53.9929 70.839C56.419 68.4927 59.6738 67.304 63.7571 67.304H85.7118C89.8523 67.304 93.1071 68.4927 95.4734 70.839C97.871 73.1594 99.0711 75.9029 99.0711 79.0979V91.2034C99.0685 94.2842 97.8684 97.0303 95.4397 99.4052C93.0135 101.809 89.7848 102.997 85.704 102.997H63.7493C59.7231 102.997 56.4969 101.809 54.0137 99.4052C51.5875 96.9991 50.39 94.2583 50.39 91.1177V79.1836H50.3952ZM83.1973 94.9383C85.0234 94.9097 86.4807 94.401 87.5379 93.4666C88.6496 92.5323 89.2211 91.2319 89.2211 89.5916V80.4839C89.1951 78.815 88.6237 77.5147 87.5405 76.5803C86.4261 75.5914 85 75.1086 83.2025 75.1086H66.3002C64.5312 75.1086 63.1025 75.5888 61.9882 76.5803C60.931 77.5406 60.3595 78.841 60.305 80.4839V89.6746C60.305 91.2579 60.8738 92.5297 61.9856 93.464C63.1571 94.4555 64.5832 94.9357 66.2976 94.9357H83.1999L83.1973 94.9383ZM171.964 89.2671L190.189 102.995H181.632C176.479 102.995 171.496 101.162 167.572 97.8245L148.181 81.3327L178.398 81.343C179.897 81.343 182.224 81.3716 182.224 78.3323C182.224 75.2929 179.757 75.2462 178.546 75.2462L156.129 75.2514C151.742 75.2514 148.186 71.6955 148.188 67.3117H179.331C184.347 67.3117 192.202 68.7419 192.202 78.0364C192.202 89.1685 184.066 89.2697 179.328 89.2697H171.964V89.2671Z" fill="url(#paint0_linear_55_316)"/>
<defs>
<linearGradient id="paint0_linear_55_316" x1="0.438809" y1="85.1506" x2="244" y2="85.1506" gradientUnits="userSpaceOnUse">
<stop stop-color="#0D0F28"/>
<stop offset="1" stop-color="#6E6F7E"/>
</linearGradient>
</defs>
</svg>
