<svg width="89" height="75" viewBox="0 0 89 75" fill="none" xmlns="http://www.w3.org/2000/svg">
<path fill-rule="evenodd" clip-rule="evenodd" d="M75.5285 7.77182L85.7002 50.311C86.3485 53.022 84.6766 55.7448 81.9655 56.393L19.7929 71.2594C17.0818 71.9076 14.3591 70.2357 13.7109 67.5247L3.53914 24.9855C2.89089 22.2745 4.56279 19.5517 7.27384 18.9035L69.4465 4.03712C72.1575 3.38887 74.8802 5.06077 75.5285 7.77182ZM72.2562 8.55426C72.0403 7.65113 71.132 7.09341 70.2289 7.30936L8.05628 22.1757C7.15314 22.3917 6.59543 23.2999 6.81138 24.2031L16.9831 66.7422C17.1991 67.6454 18.1073 68.2031 19.0104 67.9871L81.1831 53.1208C82.0862 52.9048 82.6439 51.9966 82.428 51.0934L72.2562 8.55426Z" fill="#FFAE16"/>
<path fill-rule="evenodd" clip-rule="evenodd" d="M26.0412 42.6307C25.4212 43.322 24.3577 43.3809 23.6651 42.7629C22.9737 42.143 22.9149 41.0795 23.5328 40.3869C23.5328 40.3869 33.8538 28.7483 54.5973 27.488C55.3816 27.4405 56.0951 27.9428 56.3154 28.6978C56.5341 29.4533 56.2027 30.259 55.5137 30.64C55.5137 30.64 48.3086 34.6218 43.2416 39.0817C42.8369 39.4362 42.4464 39.7924 42.078 40.1469C48.4879 37.9033 59.1855 34.6396 65.4193 35.3561C66.3424 35.4623 67.0059 36.2982 66.8993 37.2197C66.7931 38.1427 65.9572 38.8062 65.0358 38.6996C56.2386 37.6863 38.052 45.2348 38.052 45.2348C37.4361 45.4876 36.7312 45.3535 36.2496 44.8944C35.7692 44.4333 35.6054 43.7339 35.8309 43.1074C36.5735 41.048 38.5468 38.7323 41.0173 36.5572C42.9319 34.8713 45.1356 33.2512 47.1806 31.8646C33.0913 34.8253 26.0412 42.6307 26.0412 42.6307Z" fill="#FFAE16"/>
</svg>
