<svg width="85" height="93" viewBox="0 0 85 93" fill="none" xmlns="http://www.w3.org/2000/svg">
<path d="M65.2307 78.0831C61.9683 78.9573 58.6027 77.0142 57.7285 73.7517L56.6716 69.8072C56.1849 67.991 57.2618 66.1259 59.0779 65.6392L64.3373 64.23C66.1535 63.7433 68.0186 64.8202 68.5052 66.6363L69.5622 70.5809C70.4364 73.8434 68.4932 77.209 65.2307 78.0831Z" fill="#FFAE16"/>
<path d="M82.8975 75.5513C81.7634 75.8552 80.5964 75.1814 80.2925 74.0474C77.4124 63.2985 71.0694 56.8244 61.4366 54.8042C54.0451 53.2528 47.3597 54.9808 47.2923 54.9989L42.7183 56.2245C42.6542 56.2416 36.0021 58.0875 30.3749 63.1272C23.0444 69.6926 20.787 78.4729 23.6668 89.2202C23.9706 90.3543 23.2968 91.5213 22.1628 91.8252C21.0287 92.129 19.8617 91.4553 19.5578 90.3212C15.3904 74.7681 21.6623 65.1658 27.6575 59.8495C34.0383 54.1904 41.3099 52.1979 41.6173 52.1155L46.1946 50.8891C46.5003 50.8071 53.7944 48.8985 62.1511 50.607C70.0012 52.2134 80.234 57.3933 84.4015 72.9464C84.7053 74.0805 84.0315 75.2475 82.8975 75.5513Z" fill="#FFAE16"/>
<path d="M42.8164 47.4271C32.3075 50.2429 21.4684 43.9836 18.6529 33.4763C15.8375 22.969 22.0943 12.127 32.6033 9.31113C43.1123 6.49526 53.9514 12.7546 56.7668 23.2619C59.5822 33.7693 53.3233 44.61 42.816 47.4254L42.8164 47.4271ZM33.7043 13.42C25.4618 15.6286 20.5528 24.1312 22.7614 32.3736C24.97 40.6161 33.4725 45.5251 41.715 43.3165C49.9575 41.1079 54.8664 32.6054 52.6579 24.3629C50.4493 16.1204 41.9468 11.2115 33.7043 13.42Z" fill="#FFAE16"/>
</svg>
